<svg id="Calque_1" data-name="Calque 1" xmlns="http://www.w3.org/2000/svg" viewBox="0 0 72.83 73.53"><defs><style>.cls-1{fill:#fff;}</style></defs><title>icn-issues</title><path class="cls-1" d="M67.1,55.8l-24.88-43c-1.46-2.53-3.52-3.93-5.79-3.93s-4.35,1.43-5.79,3.92L5.72,55.8c-1.46,2.53-1.64,5-.51,7s3.37,3,6.28,3H61.32c2.92,0,5.16-1.08,6.29-3S68.57,58.33,67.1,55.8ZM64.58,61c-.48.82-1.66,1.3-3.26,1.3H11.5c-1.59,0-2.78-.47-3.25-1.29s-.29-2.09.51-3.47l24.91-43c.8-1.38,1.81-2.17,2.76-2.17s2,.79,2.76,2.18l24.88,43C64.87,58.93,65.06,60.19,64.58,61Z"/><path class="cls-1" d="M34.23,28.79V45.42a2.18,2.18,0,1,0,4.36,0V28.79a2.18,2.18,0,1,0-4.36,0Z"/><circle class="cls-1" cx="36.41" cy="53.27" r="2.8"/></svg>