<?xml version="1.0" encoding="utf-8"?>
<!-- Generator: Adobe Illustrator 21.1.0, SVG Export Plug-In . SVG Version: 6.00 Build 0)  -->
<svg version="1.1" id="Layer_1" xmlns="http://www.w3.org/2000/svg" xmlns:xlink="http://www.w3.org/1999/xlink" x="0px" y="0px"
	 viewBox="0 0 67.1 67.1" style="enable-background:new 0 0 67.1 67.1;" xml:space="preserve">
<style type="text/css">
	.st0{fill:#5987C6;}
	.st1{enable-background:new    ;}
	.st2{fill:#FFFFFF;}
</style>
<circle class="st0" cx="33.5" cy="33.5" r="33.5"/>
<g class="st1">
	<path class="st2" d="M27,40.3h-6.8l-1.3,5.1h-5.3l7.8-24.9h4.6l7.8,24.9h-5.4L27,40.3z M21.3,36.1h4.6l-2.3-8.9L21.3,36.1z"/>
	<path class="st2" d="M41,36.6v8.7h-5V20.5h8.5c2.5,0,4.4,0.8,5.9,2.3c1.5,1.5,2.2,3.5,2.2,5.9c0,2.4-0.7,4.4-2.2,5.8
		c-1.4,1.4-3.5,2.1-6,2.1H41z M41,32.4h3.5c1,0,1.7-0.3,2.2-0.9c0.5-0.6,0.8-1.5,0.8-2.7c0-1.2-0.3-2.2-0.8-3
		c-0.5-0.7-1.3-1.1-2.2-1.1H41V32.4z"/>
</g>
</svg>
