<?xml version="1.0" encoding="utf-8"?>
<!-- Generator: Adobe Illustrator 21.1.0, SVG Export Plug-In . SVG Version: 6.00 Build 0)  -->
<svg version="1.1" id="Layer_1" xmlns="http://www.w3.org/2000/svg" xmlns:xlink="http://www.w3.org/1999/xlink" x="0px" y="0px"
	 viewBox="0 0 67.1 67.1" style="enable-background:new 0 0 67.1 67.1;" xml:space="preserve">
<style type="text/css">
	.st0{fill:#808C97;}
	.st1{fill:#FFFFFF;}
</style>
<circle class="st0" cx="33.5" cy="33.5" r="33.5"/>
<g>
	<path class="st1" d="M33,35.8c0,3.3-0.8,5.9-2.4,7.8c-1.6,1.8-3.8,2.8-6.6,2.8c-2.8,0-5-0.9-6.6-2.7c-1.6-1.8-2.4-4.4-2.4-7.7v-4.3
		c0-3.4,0.8-6.1,2.4-8c1.6-1.9,3.8-2.9,6.6-2.9c2.8,0,4.9,0.9,6.5,2.8c1.6,1.9,2.4,4.5,2.4,7.9V35.8z M27.9,31.6c0-2.2-0.3-3.9-1-5
		c-0.6-1.1-1.6-1.6-3-1.6c-1.3,0-2.3,0.5-3,1.6c-0.6,1.1-1,2.7-1,4.8v4.4c0,2.2,0.3,3.8,1,4.8s1.7,1.5,3,1.5c1.3,0,2.3-0.5,2.9-1.5
		c0.6-1,1-2.6,1-4.7V31.6z"/>
	<path class="st1" d="M53.4,37.7c-0.1,2.8-0.9,5-2.4,6.4c-1.5,1.5-3.5,2.2-6.2,2.2c-2.8,0-5-0.9-6.5-2.8c-1.5-1.9-2.2-4.5-2.2-7.9
		v-4.2c0-3.4,0.8-6,2.3-7.9c1.5-1.9,3.7-2.8,6.5-2.8c2.7,0,4.8,0.8,6.2,2.3c1.4,1.5,2.2,3.7,2.4,6.5h-5c0-1.8-0.3-3-0.8-3.6
		s-1.4-1-2.7-1c-1.3,0-2.3,0.5-2.9,1.4c-0.6,0.9-0.9,2.5-0.9,4.6v4.7c0,2.5,0.3,4.2,0.8,5.1c0.6,0.9,1.5,1.4,2.8,1.4
		c1.3,0,2.2-0.3,2.7-1c0.5-0.6,0.8-1.8,0.9-3.5H53.4z"/>
</g>
</svg>
