<svg id="Calque_1" data-name="Calque 1" xmlns="http://www.w3.org/2000/svg" viewBox="0 0 72.83 73.53"><defs><style>.cls-1{fill:#fff;}</style></defs><title>Artboard 1</title><path class="cls-1" d="M27.54,43.32h0a22.18,22.18,0,0,0-2.43.25l-6,.83c-3.63.62-10.5,4-10.5,12.5V70.22h3.5V56.89c0-7.59,7.29-9,7.54-9,0,0,4.64-.64,5.94-.83L26,47,28.6,70.22h3.52L29.28,44.86A1.74,1.74,0,0,0,27.54,43.32Z"/><path class="cls-1" d="M53.66,44.38s-4.62-.63-5.91-.82a21.21,21.21,0,0,0-2.43-.25h0a1.74,1.74,0,0,0-1.73,1.55L40.74,70.22h3.52L46.87,47l.37.05c1.29.19,5.87.82,5.88.82.32.05,7.57,1.4,7.57,9V70.22h3.5V56.89C64.19,48.43,57.34,45,53.66,44.38Z"/><path class="cls-1" d="M36.42,45.79a1.75,1.75,0,0,0-1.75,1.75V70.22h3.5V47.54A1.75,1.75,0,0,0,36.42,45.79Z"/><path class="cls-1" d="M56.11,58.76H49.86a1.75,1.75,0,0,0,0,3.5h6.25a1.75,1.75,0,0,0,0-3.5Z"/><path class="cls-1" d="M52,11.15c-.8-1.6-3.19-3.38-7.73-4.78C39.53,4.9,27.83,3.81,27.39,3.84l-1.13.06-3,5.76c-3.24,1.78-3,3-3,4.17,0,.23,2.74,5.86,3,11.42.41,9.31,6.57,16.45,13.76,16.45s13.41-7.42,13.53-17.61C50.51,24.09,54,15,52,11.15ZM47,25c-.17,7.4-4.58,13.34-10,13.34s-10.43-6.22-10.32-13a12.71,12.71,0,0,0-.4-2.75l3-6.31c3,1.1,5.68,2.44,6.31,2.76l.93.46.88-.54c.74-.46.95-1,1-2.73L47.65,19C47.57,21.06,47,25,47,25ZM34.71,11.57v2.35c0,.31,0,.65,0,1-1.39-.42-4.49-1.59-6.84-2.38l-2.82,5.65c-.32-1.12-.6-2.11-.73-2.8a7.26,7.26,0,0,1,.23-3.08,6,6,0,0,1,1.84-1.38l2.3-3.82C32.1,7,40.16,9,43.19,9.89c1.6.49,5.09,1.45,5.51,2.26a30,30,0,0,1,.44,3.79Z"/></svg>