<svg id="Calque_1" data-name="Calque 1" xmlns="http://www.w3.org/2000/svg" viewBox="0 0 72.83 73.53"><defs><style>.cls-1{fill:#fff;}</style></defs><title>icn-visit-reports</title><path class="cls-1" d="M54.35,13H29.65l-.37.06v0a1.79,1.79,0,0,0-.65.35L16.92,23.28a1.79,1.79,0,0,0-.62,1.12h0V60.87a4.53,4.53,0,0,0,4.51,4.51H54.35a4.53,4.53,0,0,0,4.51-4.51V17.51A4.53,4.53,0,0,0,54.35,13Zm1.35,47.87a1.37,1.37,0,0,1-1.35,1.35H20.79a1.37,1.37,0,0,1-1.35-1.35v-35l9.91-8.34v8.79H24.59v3.16h7.92V16.16H54.35a1.37,1.37,0,0,1,1.35,1.35Z"/><polyline class="cls-1" points="37.24 41.92 44.83 32.1 48.27 34.76 37.95 48.1 29.23 41.02 31.98 37.64 37.24 41.92"/></svg>