<svg id="Calque_1" data-name="Calque 1" xmlns="http://www.w3.org/2000/svg" viewBox="0 0 72.83 73.53"><defs><style>.cls-1{fill:#fff;}</style></defs><title>Artboard 1</title><path class="cls-1" d="M52.36,42.11,47.23,40.4h0a1.75,1.75,0,0,0-2.15,2.23l2.13,6.47-5.84-3.34a1.75,1.75,0,0,0-1.74,3l2.3,1.32-5.52,11-5.52-11,2.3-1.32a1.75,1.75,0,0,0-1.74-3l-5.84,3.34,2.13-6.47a1.75,1.75,0,0,0-2.15-2.23h0l-5.12,1.71c-1,.27-10.32,3-10.32,11.42V67.46h3.5V53.53c0-6,7.43-8,7.74-8l1.94-.65-2.47,7.51v0a1.64,1.64,0,0,0,0,.18c0,.05,0,.11,0,.16a4.57,4.57,0,0,0,0,.34c0,.05,0,.11,0,.16a1.69,1.69,0,0,0,0,.17s0,.1.06.14a1.67,1.67,0,0,0,.08.18l0,0,0,.05a1.79,1.79,0,0,0,.2.27l.08.08a1.72,1.72,0,0,0,.33.25h0a1.75,1.75,0,0,0,.3.13h0a1.75,1.75,0,0,0,.5.08h0a1.75,1.75,0,0,0,.49-.08l.16-.07a1.74,1.74,0,0,0,.22-.09l4.45-2.55,7,13.88a1.75,1.75,0,0,0,1.57,1h.08a1.75,1.75,0,0,0,1.57-1l7-13.88,4.45,2.55a1.75,1.75,0,0,0,.22.09l.16.07a1.75,1.75,0,0,0,.49.08h0a1.75,1.75,0,0,0,.5-.08h0a1.78,1.78,0,0,0,.3-.13h0a1.72,1.72,0,0,0,.33-.25l.08-.08a1.74,1.74,0,0,0,.2-.26l0-.06,0,0a1.71,1.71,0,0,0,.08-.17s0-.1.06-.15a1.68,1.68,0,0,0,0-.17c0-.05,0-.11,0-.16a1.66,1.66,0,0,0,0-.17,1.62,1.62,0,0,0,0-.17c0-.05,0-.11,0-.16a1.63,1.63,0,0,0,0-.18v0l-2.47-7.5,1.81.6.13,0c.08,0,7.74,2,7.74,8V67.35h3.5V53.53C62.67,45.08,53.36,42.38,52.36,42.11Z"/><path class="cls-1" d="M17.52,24.7c.11.51.2,1,.3,1.46a79,79,0,0,0,2.45,9.43,1.75,1.75,0,0,0,3.34-1,75.22,75.22,0,0,1-2.35-9.07c-.09-.47-.19-.94-.29-1.43-.51-4,.31-7.26,2.42-9.63,4.07-4.56,11.77-4.82,13-4.84s8.91.34,12.93,4.84C51.41,16.78,52.23,20,51.72,24c-.1.5-.2,1-.29,1.43a75.22,75.22,0,0,1-2.35,9.07,1.75,1.75,0,1,0,3.34,1,79,79,0,0,0,2.45-9.43c.1-.48.19-1,.3-1.46,0,0,0-.09,0-.14.66-5.11-.44-9.32-3.29-12.5-4.82-5.38-13.05-5.94-15.27-6H36c-2.24.05-10.44.62-15.25,6-2.85,3.18-4,7.38-3.29,12.5C17.5,24.61,17.51,24.66,17.52,24.7Z"/><path class="cls-1" d="M40,14a1.5,1.5,0,0,0-1.72,1.24c-.05.34-1.47,8.21-13.24,7.3a1.5,1.5,0,0,0-.3,3c0,7.34,5,15.5,11.66,15.5S48,32.81,48,25.47a1.5,1.5,0,0,0-.22-3c-3.81-.17-6.42-3.41-7.3-4.68a10.07,10.07,0,0,0,.71-2.15A1.5,1.5,0,0,0,40,14Zm4.65,10.92a1.73,1.73,0,0,0-.08.5c0,6.11-4,12.1-8.16,12.1s-8.09-6-8.16-11.95c5.54-.34,8.76-2.65,10.61-5A13.89,13.89,0,0,0,44.61,24.88Z"/></svg>