<?xml version="1.0" encoding="utf-8"?>
<!-- Generator: Adobe Illustrator 21.1.0, SVG Export Plug-In . SVG Version: 6.00 Build 0)  -->
<svg version="1.1" id="Layer_1" xmlns="http://www.w3.org/2000/svg" xmlns:xlink="http://www.w3.org/1999/xlink" x="0px" y="0px"
	 viewBox="0 0 67.1 67.1" style="enable-background:new 0 0 67.1 67.1;" xml:space="preserve">
<style type="text/css">
	.st0{fill:#17AAE2;}
	.st1{fill:#FFFFFF;}
</style>
<circle class="st0" cx="33.5" cy="33.5" r="33.5"/>
<g>
	<path class="st1" d="M27.8,33l-1.5-1.2c2.3-2.6,4.5-4.4,6.4-5.5c1.9-1.1,3.6-1.6,4.9-1.6c0.7,0,1.3,0.2,1.7,0.5
		c0.4,0.3,0.6,0.8,0.6,1.3c0,0.7-0.8,3.6-2.3,8.6c-2.5,8.3-3.7,13.3-3.7,15c0,0.3,0.1,0.6,0.2,0.8c0.2,0.2,0.3,0.3,0.5,0.3
		c0.8,0,2.7-1.5,5.8-4.4l1.4,1.3c-3.2,3-5.6,5-7,5.8s-2.7,1.3-3.6,1.3c-0.8,0-1.5-0.3-2-0.8c-0.5-0.5-0.7-1.2-0.7-2.1
		c0-2.9,1.8-10.1,5.3-21.5c0.2-0.5,0.2-1,0.2-1.4c0-0.5-0.2-0.7-0.6-0.7c-0.5,0-1,0.2-1.6,0.6C31.2,29.8,29.8,31,27.8,33z M41.6,9.7
		c0.7,0,1.3,0.2,1.8,0.7c0.5,0.5,0.7,1.1,0.7,1.8c0,1-0.4,1.9-1.1,2.7c-0.7,0.8-1.5,1.2-2.4,1.2c-0.7,0-1.3-0.2-1.8-0.7
		s-0.7-1.1-0.7-1.9c0-1.1,0.3-2,1-2.7S40.7,9.7,41.6,9.7z"/>
</g>
</svg>
