<?xml version="1.0" encoding="utf-8"?>
<!-- Generator: Adobe Illustrator 21.1.0, SVG Export Plug-In . SVG Version: 6.00 Build 0)  -->
<svg version="1.1" id="Layer_1" xmlns="http://www.w3.org/2000/svg" xmlns:xlink="http://www.w3.org/1999/xlink" x="0px" y="0px"
	 viewBox="0 0 67.1 67.1" style="enable-background:new 0 0 67.1 67.1;" xml:space="preserve">
<style type="text/css">
	.st0{fill:#AC62A7;}
	.st1{enable-background:new    ;}
	.st2{fill:#FFFFFF;}
</style>
<circle class="st0" cx="33.5" cy="33.5" r="33.5"/>
<g class="st1">
	<path class="st2" d="M33.8,37.6c-0.1,2.8-0.9,5-2.4,6.4c-1.5,1.5-3.5,2.2-6.2,2.2c-2.8,0-5-0.9-6.5-2.8s-2.2-4.5-2.2-7.9v-4.2
		c0-3.4,0.8-6,2.3-7.9c1.5-1.8,3.7-2.8,6.5-2.8c2.7,0,4.8,0.8,6.2,2.3c1.4,1.5,2.2,3.7,2.4,6.5h-5c0-1.8-0.3-3-0.8-3.6
		c-0.5-0.7-1.4-1-2.7-1c-1.3,0-2.3,0.5-2.9,1.4c-0.6,0.9-0.9,2.5-0.9,4.6v4.7c0,2.5,0.3,4.2,0.8,5.1s1.5,1.4,2.8,1.4
		c1.3,0,2.2-0.3,2.7-1c0.5-0.6,0.8-1.8,0.9-3.5H33.8z"/>
	<path class="st2" d="M49.8,35.2h-7.8v6.6h9.3v4.2H36.9V21.1h14.2v4.2h-9.2v5.9h7.8V35.2z"/>
</g>
</svg>
