<svg id="Calque_1" data-name="Calque 1" xmlns="http://www.w3.org/2000/svg" viewBox="0 0 72.83 73.53"><defs><style>.cls-1{fill:#fff;}</style></defs><title>icn-academic-plan</title><path class="cls-1" d="M61.69,36.62c-1.3-5.38-3.84-9.11-7.53-11.08-5-2.68-10.38-1.11-11.38-.78a38.12,38.12,0,0,1-6.06.8h0l-.21,0a1.63,1.63,0,0,0-.36,0,35.82,35.82,0,0,1-6.07-.8c-1-.33-6.36-1.9-11.38.78-3.7,2-6.23,5.7-7.55,11.17-.13.69-3.05,16.91,9.82,28.52a9.48,9.48,0,0,0,6.86,2.86,11.13,11.13,0,0,0,4.56-1,14.54,14.54,0,0,1,4-1h0a14.29,14.29,0,0,1,4,1,11.32,11.32,0,0,0,4.63,1,9.46,9.46,0,0,0,6.86-2.85C64.77,53.61,61.84,37.39,61.69,36.62ZM49.48,62.69l-.15.15c-.11.13-2.83,3.08-7.57,1a17.65,17.65,0,0,0-5.33-1.23h0A17.69,17.69,0,0,0,31,63.84c-4.67,2.08-7.39-.88-7.49-1l-.16-.16C11.9,52.42,14.53,37.51,14.54,37.44c1.05-4.35,3-7.31,5.75-8.8,4-2.18,8.67-.56,8.71-.54l.28.08a37.84,37.84,0,0,0,6.91.89l.23,0,.23,0a37.77,37.77,0,0,0,6.91-.89l.28-.08s4.61-1.65,8.68.53c2.78,1.49,4.72,4.45,5.76,8.73C58.3,37.51,60.94,52.42,49.48,62.69Z"/><path class="cls-1" d="M29.16,14.32s3.08,1.33,5.42,6.94a1.73,1.73,0,0,0,.76.84,1.76,1.76,0,0,0,1.17.53H37c1.77,0,7.8-.31,11-4.35,2.49-3.15,4-10,4.19-10.74a1.75,1.75,0,0,0-2-2.09c-.81.14-8,1.48-11.07,3.71a10.73,10.73,0,0,0-3.68,6.34c-2.36-3.37-4.68-4.34-5-4.46a1.74,1.74,0,0,0-2.23,1A1.76,1.76,0,0,0,29.16,14.32Zm12-2.32c1.41-1,4.49-1.93,6.92-2.52-.66,2.3-1.68,5.19-2.83,6.64-1.7,2.15-4.92,2.77-6.85,3C38.61,16.76,39.3,13.36,41.16,12Z"/></svg>