<svg id="Calque_1" data-name="Calque 1" xmlns="http://www.w3.org/2000/svg" viewBox="0 0 72.83 73.53"><defs><style>.cls-1{fill:#fff;}</style></defs><title>icn-my-liasons</title><path class="cls-1" d="M10.94,24.91c.09.43.17.84.26,1.25a67.49,67.49,0,0,0,2.09,8,1.49,1.49,0,0,0,2.85-.89,64.24,64.24,0,0,1-2-7.75c-.08-.4-.16-.8-.25-1.22-.43-3.43.26-6.2,2.07-8.23C19.42,12.23,26,12,27,12s7.61.29,11,4.14c1.81,2,2.5,4.79,2.07,8.23-.09.42-.17.82-.25,1.22a64.24,64.24,0,0,1-2,7.75,1.49,1.49,0,1,0,2.85.89,67.48,67.48,0,0,0,2.09-8c.08-.41.16-.82.26-1.25l0-.12c.57-4.37-.38-8-2.81-10.67C36.18,9.53,29.15,9,27.26,9h-.5c-1.91,0-8.92.53-13,5.12-2.43,2.71-3.37,6.3-2.81,10.67C10.93,24.83,10.93,24.87,10.94,24.91Z"/><path class="cls-1" d="M30.1,15.74a1.28,1.28,0,0,0-1.47,1.06c0,.29-1.25,7-11.31,6.24a1.28,1.28,0,0,0-.26,2.54c0,6.27,4.28,13.23,10,13.23s9.92-7,10-13.24A1.28,1.28,0,0,0,36.8,23c-3.25-.15-5.48-2.91-6.24-4a8.6,8.6,0,0,0,.61-1.83A1.28,1.28,0,0,0,30.1,15.74Zm4,9.32a1.48,1.48,0,0,0-.07.43c0,5.21-3.45,10.33-7,10.33s-6.91-5.13-7-10.2c4.73-.29,7.48-2.26,9.06-4.23A11.86,11.86,0,0,0,34.07,25.06Z"/><polygon class="cls-1" points="57.73 54.24 51.74 49.37 53.63 47.05 57.24 49.99 62.46 43.24 64.83 45.07 57.73 54.24"/><path class="cls-1" d="M58.09,62A13.31,13.31,0,1,1,71.39,48.67,13.32,13.32,0,0,1,58.09,62Zm0-23.63A10.32,10.32,0,1,0,68.41,48.67,10.33,10.33,0,0,0,58.09,38.35Z"/><path class="cls-1" d="M40.4,48.71a1.38,1.38,0,0,0,0-.16v0l-2.11-6.41,1.54.52.11,0a12.49,12.49,0,0,1,2.68,1.12A16.4,16.4,0,0,1,43.73,41a15.56,15.56,0,0,0-3-1.22l-4.37-1.46h0a1.49,1.49,0,0,0-1.83,1.9l1.82,5.53-5-2.86a1.49,1.49,0,1,0-1.49,2.59l2,1.13L27.08,56l-4.71-9.4,2-1.13a1.49,1.49,0,0,0-1.49-2.59l-5,2.86,1.82-5.53a1.49,1.49,0,0,0-1.83-1.9h0l-4.37,1.46c-.86.23-8.81,2.54-8.81,9.76V61.43h3V49.54c0-5.13,6.34-6.8,6.61-6.87l1.66-.55L13.8,48.52v0a1.41,1.41,0,0,0,0,.16s0,.09,0,.14a1.37,1.37,0,0,0,0,.14,1.4,1.4,0,0,0,0,.15s0,.09,0,.14a1.45,1.45,0,0,0,0,.15l0,.12a1.4,1.4,0,0,0,.07.15l0,0,0,0a1.52,1.52,0,0,0,.17.23l.07.07a1.47,1.47,0,0,0,.28.21h0a1.49,1.49,0,0,0,.26.11h0a1.5,1.5,0,0,0,.42.07h0a1.5,1.5,0,0,0,.42-.07l.14-.06.19-.08,3.8-2.18L25.71,60a1.49,1.49,0,0,0,1.34.83h.07A1.49,1.49,0,0,0,28.45,60l5.94-11.85,3.8,2.18.19.08.14.06a1.5,1.5,0,0,0,.42.07h0a1.5,1.5,0,0,0,.42-.07h0a1.52,1.52,0,0,0,.26-.11h0a1.47,1.47,0,0,0,.28-.21L40,50a1.48,1.48,0,0,0,.17-.23l0,0,0,0a1.45,1.45,0,0,0,.07-.15s0-.08,0-.12a1.42,1.42,0,0,0,0-.15s0-.09,0-.14a3.88,3.88,0,0,0,0-.29S40.4,48.76,40.4,48.71Z"/></svg>