<svg id="Layer_1" data-name="Layer 1" xmlns="http://www.w3.org/2000/svg" viewBox="0 0 43.06 38.64"><defs><style>.cls-1{fill:#ffffff;}</style></defs><title>icn-warning</title><path class="cls-1" d="M38,3a2.09,2.09,0,0,1,1.81,3.14L23.34,34.6a2.09,2.09,0,0,1-3.62,0L3.29,6.14A2.09,2.09,0,0,1,5.1,3H38m0-2H5.1A4.09,4.09,0,0,0,1.55,7.14L18,35.6a4.09,4.09,0,0,0,7.09,0L41.5,7.14A4.09,4.09,0,0,0,38,1Z"/><path class="cls-1" d="M19.15,23a2.38,2.38,0,1,1,4.76,0,2.38,2.38,0,1,1-4.76,0ZM20,19.26,19.41,7.21h4.23l-.59,12.05Z"/></svg>