<svg id="Calque_1" data-name="Calque 1" xmlns="http://www.w3.org/2000/svg" viewBox="0 0 72.83 73.53"><defs><style>.cls-1{fill:#fff;}</style></defs><title>icn-course-syllabi</title><path class="cls-1" d="M21,54.82a1.75,1.75,0,0,0-1.75-1.75h-2.7V49h-3.5v4.08H11a1.75,1.75,0,0,0,0,3.5h8.29A1.75,1.75,0,0,0,21,54.82Z"/><path class="cls-1" d="M11,45.56h8.29a1.75,1.75,0,0,0,0-3.5h-2.7V38h-3.5v4.07H11a1.75,1.75,0,0,0,0,3.5Z"/><path class="cls-1" d="M13.08,27V31H11a1.75,1.75,0,0,0,0,3.5h8.29a1.75,1.75,0,0,0,0-3.5h-2.7V27Z"/><path class="cls-1" d="M58.59,11.74H18.08a5,5,0,0,0-5,5V20H11a1.75,1.75,0,0,0,0,3.5h8.29a1.75,1.75,0,0,0,0-3.5h-2.7V16.74a1.52,1.52,0,0,1,1.5-1.5H58.59a1.52,1.52,0,0,1,1.5,1.5V62.18a1.52,1.52,0,0,1-1.5,1.5H18.08a1.52,1.52,0,0,1-1.5-1.5V60h-3.5v2.18a5,5,0,0,0,5,5H58.59a5,5,0,0,0,5-5V16.74A5,5,0,0,0,58.59,11.74Z"/><path class="cls-1" d="M49.19,38a1.75,1.75,0,0,0,1.75-1.75V25.91a1.75,1.75,0,0,0-1.75-1.75H28.53a1.75,1.75,0,0,0-1.75,1.75V36.24A1.75,1.75,0,0,0,28.53,38ZM30.28,27.66H47.44v6.83H30.28Z"/></svg>