<svg id="Calque_1" data-name="Calque 1" xmlns="http://www.w3.org/2000/svg" viewBox="0 0 72.83 73.53"><defs><style>.cls-1{fill:#fff;}</style></defs><title>icn-evaluations</title><path class="cls-1" d="M63.59,41.37,49.8,27.57a1.94,1.94,0,0,0-1.36-.47,2.68,2.68,0,0,0-1,.19,1.53,1.53,0,0,0-1,1.39V34.8h-21v6.87L12.93,29.15,25.43,16.69V24H42.31V21.37H28.1V15A1.71,1.71,0,0,0,27,13.3a2.33,2.33,0,0,0-.88-.17,2.12,2.12,0,0,0-1.47.54L10.89,27.41a2.47,2.47,0,0,0,0,3.49L24.68,44.7a2,2,0,0,0,1.36.47,2.69,2.69,0,0,0,1-.19,1.53,1.53,0,0,0,1-1.4V37.47h21V30.6l12.5,12.51L49.05,55.57V48.22h-17v2.67H46.38v6.39A1.71,1.71,0,0,0,47.45,59a2.31,2.31,0,0,0,.88.17,2.11,2.11,0,0,0,1.47-.54L63.59,44.86A2.47,2.47,0,0,0,63.59,41.37Z"/></svg>