<svg id="Calque_1" data-name="Calque 1" xmlns="http://www.w3.org/2000/svg" viewBox="0 0 72.83 73.53"><defs><style>.cls-1{fill:#fff;}</style></defs><title>Artboard 1</title><path class="cls-1" d="M46.53,47.07v3.6C53.58,52,60.1,54.9,60.1,59.86,60.1,67.37,47.34,70,36.42,70S12.74,67.37,12.74,59.86c0-4.88,6-7.9,13.46-9.28V47c-9.12,1.56-17,5.45-17,12.84,0,8.56,10.16,13.67,27.18,13.67S63.6,68.42,63.6,59.86C63.6,52.24,55.08,48.57,46.53,47.07Z"/><path class="cls-1" d="M52.15,59.59c0,1.18-5.51,4.08-15.73,4.08s-15.73-2.89-15.73-4.08c0-.69,1.9-2,5.51-2.91V53.05c-5.15,1.16-9,3.3-9,6.54,0,5.21,10,7.58,19.23,7.58s19.23-2.37,19.23-7.58c0-3.26-3.92-5.41-9.12-6.56v3.63C50.21,57.6,52.15,58.89,52.15,59.59Z"/><path class="cls-1" d="M41.28,19H31.46a6.73,6.73,0,0,0-6.72,6.71V38.55A6.74,6.74,0,0,0,29.64,45V59.37H33V41.95H31.46a3.4,3.4,0,0,1-3.4-3.4V25.74a3.4,3.4,0,0,1,3.4-3.4h9.81a3.4,3.4,0,0,1,3.4,3.4V38.55a3.4,3.4,0,0,1-3.4,3.4H39.77V59.37h3.32V45A6.74,6.74,0,0,0,48,38.55V25.74A6.73,6.73,0,0,0,41.28,19Z"/><path class="cls-1" d="M36.37,0a7.81,7.81,0,1,0,7.8,7.81A7.81,7.81,0,0,0,36.37,0Zm0,12.11a4.31,4.31,0,1,1,4.3-4.31A4.31,4.31,0,0,1,36.37,12.11Z"/></svg>