<?xml version="1.0" encoding="utf-8"?>
<!-- Generator: Adobe Illustrator 21.1.0, SVG Export Plug-In . SVG Version: 6.00 Build 0)  -->
<svg version="1.1" id="Layer_1" xmlns="http://www.w3.org/2000/svg" xmlns:xlink="http://www.w3.org/1999/xlink" x="0px" y="0px"
	 viewBox="0 0 30.2 27.3" style="enable-background:new 0 0 30.2 27.3;" xml:space="preserve">
<style type="text/css">
	.st0{fill:#FAA92E;}
	.st1{fill:#FAA92E;stroke:#FAA92E;stroke-width:0.5;stroke-miterlimit:10;}
</style>
<g>
	<g>
		<circle class="st0" cx="9.7" cy="8.7" r="5.3"/>
		<path class="st0" d="M13.8,15.5H5.5C2.5,15.5,0,18,0,21v6.3h19.2l0.1-6.3C19.3,18,16.8,15.5,13.8,15.5z"/>
	</g>
</g>
<path class="st1" d="M25.4,0.3h-7.3c-0.8,0-1.4,0.6-1.4,1.4v11.7c0,0.8,0.6,1.4,1.4,1.4h10.4c0.8,0,1.4-0.6,1.4-1.4V4.8L25.4,0.3z
	 M29.1,13.3c0,0.3-0.2,0.5-0.5,0.5H18.2c-0.3,0-0.5-0.2-0.5-0.5V1.6c0-0.3,0.2-0.5,0.5-0.5H25v3.5c0,0.5,0.4,0.9,0.9,0.9h3.1V13.3z"
	/>
</svg>
