<svg id="Calque_1" data-name="Calque 1" xmlns="http://www.w3.org/2000/svg" viewBox="0 0 72.83 73.53"><defs><style>.cls-1{fill:#fff;}</style></defs><title>icn-schedule</title><polygon class="cls-1" points="26.61 38.34 22.64 35.16 24.18 33.24 26.2 34.86 29.47 30.62 31.42 32.12 26.61 38.34"/><polygon class="cls-1" points="26.61 47.36 22.64 44.18 24.18 42.26 26.2 43.88 29.47 39.64 31.42 41.14 26.61 47.36"/><polygon class="cls-1" points="26.61 56.38 22.64 53.2 24.18 51.28 26.2 52.9 29.47 48.66 31.42 50.16 26.61 56.38"/><path class="cls-1" d="M56.2,8H29.32l-.4.07v0a2,2,0,0,0-.71.38L15.47,19.18a2,2,0,0,0-.67,1.21h0v39.7A4.93,4.93,0,0,0,19.69,65H56.2a4.93,4.93,0,0,0,4.91-4.91V12.91A4.93,4.93,0,0,0,56.2,8Zm1.47,52.09a1.49,1.49,0,0,1-1.47,1.47H19.69a1.49,1.49,0,0,1-1.47-1.47V22L29,12.94v9.57H23.82v3.44h8.61V11.44H56.2a1.49,1.49,0,0,1,1.47,1.47Z"/><path class="cls-1" d="M51.29,55.33H35.83a1.72,1.72,0,0,1,0-3.44H51.29a1.72,1.72,0,0,1,0,3.44Z"/><path class="cls-1" d="M51.29,45.79H35.83a1.72,1.72,0,0,1,0-3.44H51.29a1.72,1.72,0,0,1,0,3.44Z"/><path class="cls-1" d="M51.29,36.25H35.83a1.72,1.72,0,0,1,0-3.44H51.29a1.72,1.72,0,0,1,0,3.44Z"/></svg>