<svg id="Calque_1" data-name="Calque 1" xmlns="http://www.w3.org/2000/svg" viewBox="0 0 72.83 73.53"><defs><style>.cls-1{fill:#fff;}</style></defs><title>icn-my-profile</title><path class="cls-1" d="M27.57,24.58a6.13,6.13,0,1,0,6.12,6.13A6.12,6.12,0,0,0,27.57,24.58Zm0,9.71a3.59,3.59,0,1,1,3.58-3.59A3.59,3.59,0,0,1,27.57,34.3Z"/><rect class="cls-1" x="5" y="55.9" width="53.18" height="2.97"/><path class="cls-1" d="M69.49,25.56l-7-7h0l-.9-.9L46.86,32.36a1.33,1.33,0,0,0-.31.47L43,42.25A1.33,1.33,0,0,0,44.69,44L54,40.87a1.34,1.34,0,0,0,.52-.32L68.67,26.39h0ZM47.08,39l1.57-4.2,3.78,3.78L48.12,40Zm3.22-6.32L61.57,21.41l4.15,4.15L54.47,36.85Z"/><path class="cls-1" d="M56.37,42.53,55.21,43v3.43a3,3,0,0,1-3,3H37.77c0-.06,0-.11,0-.17V45.3a6,6,0,0,0-5.93-5.93H23.55a5.94,5.94,0,0,0-5.9,5.93v3.91c0,.06,0,.11,0,.17H10.9a3,3,0,0,1-3-3V20.68a3,3,0,0,1,3-3H52.25a3,3,0,0,1,3,3v.47l2.55-2.64a6,6,0,0,0-5.51-3.76H10.9A5.94,5.94,0,0,0,5,20.68V46.41a5.94,5.94,0,0,0,5.9,5.93H52.25a6,6,0,0,0,5.93-5.93v-5.7ZM35.24,49.21c0,.06,0,.11,0,.17h-15c0-.06,0-.11,0-.17V45.3a3.39,3.39,0,0,1,3.37-3.39h8.29a3.39,3.39,0,0,1,3.39,3.39Z"/></svg>