<svg id="Calque_1" data-name="Calque 1" xmlns="http://www.w3.org/2000/svg" viewBox="0 0 72.83 73.53"><defs><style>.cls-1,.cls-2{fill:#fff;}.cls-2{stroke:#fff;stroke-miterlimit:10;}</style></defs><title>icn-support-request</title><rect class="cls-1" x="17.51" y="42.23" width="3.5" height="3.5"/><rect class="cls-1" x="17.51" y="34.19" width="3.5" height="3.5"/><rect class="cls-1" x="17.51" y="50.27" width="3.5" height="3.5"/><path class="cls-1" d="M55.18,21.05v-8.3a5,5,0,0,0-5-5H24.46a1.62,1.62,0,0,0-1,.44L10.23,19.44a1.74,1.74,0,0,0-.6,1.15l0,.13V60.78a5,5,0,0,0,5,5H50.18a5,5,0,0,0,5-5V59a19,19,0,0,1-3.5-.72v2.51a1.52,1.52,0,0,1-1.5,1.5H14.6a1.52,1.52,0,0,1-1.5-1.5V21.59l11-9.34V22.52H18.6V26h9V11.25h22.6a1.52,1.52,0,0,1,1.5,1.5v9A19,19,0,0,1,55.18,21.05Z"/><path class="cls-1" d="M25.21,45.73H39a18.93,18.93,0,0,1-.74-3.5H25.21Z"/><path class="cls-1" d="M25.21,37.69H38.32a18.93,18.93,0,0,1,.76-3.5H25.21Z"/><path class="cls-1" d="M25.21,53.77H44a19.23,19.23,0,0,1-2.87-3.5h-16Z"/><path class="cls-1" d="M57.25,55.6A15.58,15.58,0,1,1,72.83,40,15.6,15.6,0,0,1,57.25,55.6Zm0-27.67A12.08,12.08,0,1,0,69.33,40,12.1,12.1,0,0,0,57.25,27.94Z"/><path class="cls-2" d="M56.14,34.37l4.3,4.38H49.83a.94.94,0,0,0-.94.94v.51a.94.94,0,0,0,.94.94H60.44l-4.3,4.23a.45.45,0,0,0,0,.64l1,1a.45.45,0,0,0,.64,0l7.15-7.08-7.15-7.23a.42.42,0,0,0-.6,0l-1.06,1.06A.42.42,0,0,0,56.14,34.37Z"/></svg>