<svg id="Calque_1" data-name="Calque 1" xmlns="http://www.w3.org/2000/svg" viewBox="0 0 72.83 73.53"><defs><style>.cls-1{fill:#fff;}</style></defs><title>Artboard 1</title><path class="cls-1" d="M41.59,25.51H31.23a7.11,7.11,0,0,0-7.09,7.09V46.12a7.11,7.11,0,0,0,5.17,6.81V68.1h3.5V49.71H31.23a3.59,3.59,0,0,1-3.59-3.59V32.59A3.59,3.59,0,0,1,31.23,29H41.59a3.59,3.59,0,0,1,3.59,3.59V46.12a3.59,3.59,0,0,1-3.59,3.59H40V68.1h3.5V52.94a7.11,7.11,0,0,0,5.17-6.81V32.59A7.11,7.11,0,0,0,41.59,25.51Z"/><path class="cls-1" d="M68.35,38.26A1.74,1.74,0,0,0,67.84,37l-5.61-5.61h0l-.14-.14a1.75,1.75,0,1,0-2.47,2.47l2.8,2.8H54.77a1.75,1.75,0,0,0,0,3.5H62.4l-2.64,2.64a1.75,1.75,0,1,0,2.47,2.47l5.61-5.61A1.74,1.74,0,0,0,68.35,38.26Z"/><path class="cls-1" d="M18,36.54H10.41l2.8-2.8a1.75,1.75,0,1,0-2.47-2.47l-.14.14h0L5.13,36.88h0L5,37a1.82,1.82,0,0,0,0,2.52l5.6,5.61a1.75,1.75,0,0,0,2.47-2.47L10.42,40H18a1.75,1.75,0,0,0,0-3.5Z"/><path class="cls-1" d="M36.41,5.43a8.24,8.24,0,1,0,8.23,8.24A8.24,8.24,0,0,0,36.41,5.43Zm0,13a4.74,4.74,0,1,1,4.73-4.74A4.74,4.74,0,0,1,36.41,18.41Z"/></svg>