<svg id="Calque_1" data-name="Calque 1" xmlns="http://www.w3.org/2000/svg" viewBox="0 0 72.83 73.53"><defs><style>.cls-1{fill:#fff;}</style></defs><title>Artboard 1</title><path class="cls-1" d="M56.29,10.7a33.53,33.53,0,0,0-35.47-.23c-.39.2-9.39,5.1-6.57,18.64a14.38,14.38,0,0,1-.47,4.29L7.5,40.8a1.73,1.73,0,0,0-.3.51,3.78,3.78,0,0,0,.25,3.22,3.57,3.57,0,0,0,2.83,1.58l3,.61a14.36,14.36,0,0,1,1.26,4.21,23.66,23.66,0,0,1-.36,4.89c-.66,1.87-1,5.31,1.45,7.15a1.72,1.72,0,0,0,.41.23h0a9,9,0,0,0,4.54.86,45.62,45.62,0,0,0,8.55-1,25.35,25.35,0,0,1,1,5H33.6c-.66-5.81-1.74-7.67-2.36-8.26a1.75,1.75,0,0,0-1.56-.43,46.33,46.33,0,0,1-9.14,1.24,5.94,5.94,0,0,1-2.93-.47l-.06,0c-.76-.75-.27-2.68-.09-3.17a1.61,1.61,0,0,0,.08-.29A30.69,30.69,0,0,0,18,52.75l3.6.06h0a1.75,1.75,0,0,0,0-3.5l-3.88-.06A22.07,22.07,0,0,0,16,44.39a1.75,1.75,0,0,0-1.2-.92l-3.9-.8-.21,0-.14,0,6-7.08a1.81,1.81,0,0,0,.16-.22c1-1.69,1.05-5.36,1-6.44a1.73,1.73,0,0,0,0-.33c-2.36-11,4.45-14.82,4.81-15a30.07,30.07,0,0,1,31.72,0c14.45,10.65,5.59,26.89,4.89,28.12-3.54,5.13-5.27,12.8-5.34,13.13a1.72,1.72,0,0,0,0,.27,61.41,61.41,0,0,0,.9,13h3.55a60.13,60.13,0,0,1-1-12.59c.24-1,1.87-7.59,4.81-11.82l.07-.11C62.24,43.29,73.59,23.45,56.29,10.7Z"/><path class="cls-1" d="M50,44.65l1.79.71,1.29-3.25-1.79-.71a6.29,6.29,0,0,0,0-1.38L53,39.25,51.64,36l-1.77.77a6.21,6.21,0,0,0-1-1l.71-1.79-3.25-1.29-.71,1.81c-.19,0-.38-.05-.57-.05a6.45,6.45,0,0,0-.79.06l-.77-1.77-3.21,1.39L41,36a6.3,6.3,0,0,0-1,1l-1.79-.71L37,39.52l1.78.7a6.25,6.25,0,0,0,0,1.38l-1.77.77,1.39,3.21,1.79-.78a6.25,6.25,0,0,0,1,.94l-.72,1.81,3.26,1.29L44.47,47c.19,0,.38.05.58.05a6.36,6.36,0,0,0,.79-.06l.77,1.77,3.21-1.39L49,45.64A6.24,6.24,0,0,0,50,44.65Zm-2.38-2.82a2.78,2.78,0,1,1-1.56-3.6A2.76,2.76,0,0,1,47.62,41.83Z"/><path class="cls-1" d="M48,25.08v-3.5H45.58a8.17,8.17,0,0,0-1.12-2.68l1.68-1.68-2.47-2.47L42,16.43a8.17,8.17,0,0,0-2.69-1.12V12.94h-3.5v2.37a8.17,8.17,0,0,0-2.69,1.12l-1.68-1.68L29,17.22l1.68,1.68a8.17,8.17,0,0,0-1.12,2.68H27.16v3.5h2.37a8.17,8.17,0,0,0,1.12,2.68L29,29.45l2.47,2.47,1.68-1.68a8.19,8.19,0,0,0,2.69,1.12v2.37h3.5V31.36A8.18,8.18,0,0,0,42,30.24l1.68,1.68,2.47-2.47-1.68-1.68a8.17,8.17,0,0,0,1.12-2.68ZM37.53,28a4.72,4.72,0,1,1,4.72-4.72A4.72,4.72,0,0,1,37.53,28Z"/></svg>