<svg id="Calque_1" data-name="Calque 1" xmlns="http://www.w3.org/2000/svg" viewBox="0 0 72.83 73.53"><defs><style>.cls-1{fill:#fff;}</style></defs><title>icn-project-proposals</title><rect class="cls-1" x="19.17" y="42.11" width="3.43" height="3.43"/><rect class="cls-1" x="19.17" y="34.24" width="3.43" height="3.43"/><rect class="cls-1" x="19.17" y="49.99" width="3.43" height="3.43"/><path class="cls-1" d="M56.06,21.37V13.25a4.91,4.91,0,0,0-4.9-4.9H26a1.59,1.59,0,0,0-1,.43L12,19.8a1.7,1.7,0,0,0-.59,1.13l0,.13V60.28a4.91,4.91,0,0,0,4.9,4.9H51.16a4.91,4.91,0,0,0,4.9-4.9V58.53a18.61,18.61,0,0,1-3.43-.7v2.46a1.49,1.49,0,0,1-1.47,1.47H16.32a1.49,1.49,0,0,1-1.47-1.47V21.9L25.6,12.75V22.81H20.24v3.43H29V11.78H51.16a1.49,1.49,0,0,1,1.47,1.47v8.83A18.59,18.59,0,0,1,56.06,21.37Z"/><path class="cls-1" d="M26.71,45.54H40.25a18.54,18.54,0,0,1-.72-3.43H26.71Z"/><path class="cls-1" d="M26.71,37.67H39.55a18.54,18.54,0,0,1,.75-3.43H26.71Z"/><path class="cls-1" d="M26.71,53.42H45.16A18.83,18.83,0,0,1,42.35,50H26.71Z"/><polygon class="cls-1" points="57.69 46.34 50.81 40.76 52.97 38.09 57.12 41.47 63.11 33.73 65.82 35.83 57.69 46.34"/><path class="cls-1" d="M58.09,55.21A15.26,15.26,0,1,1,73.35,40,15.28,15.28,0,0,1,58.09,55.21Zm0-27.1A11.84,11.84,0,1,0,69.92,40,11.85,11.85,0,0,0,58.09,28.12Z"/></svg>