<svg id="Calque_1" data-name="Calque 1" xmlns="http://www.w3.org/2000/svg" viewBox="0 0 72.83 73.53"><defs><style>.cls-1{fill:#fff;}</style></defs><title>icn-proposals</title><path class="cls-1" d="M69.2,35.66H63.83A26,26,0,0,0,39.48,11.33V5.94a1.61,1.61,0,1,0-3.21,0v5.39A26,26,0,0,0,12,35.66H6.54a1.61,1.61,0,0,0,0,3.21H12A26,26,0,0,0,36.26,63.2v5.4a1.61,1.61,0,1,0,3.21,0V63.2A26,26,0,0,0,63.83,38.87H69.2a1.61,1.61,0,0,0,0-3.21Zm-8.6,0H54.18A16.36,16.36,0,0,0,39.48,21V14.56A22.8,22.8,0,0,1,60.6,35.66ZM37.9,50.41A13.15,13.15,0,1,1,51,37.27,13.16,13.16,0,0,1,37.9,50.41ZM36.26,14.56V21A16.36,16.36,0,0,0,21.62,35.66H15.19A22.8,22.8,0,0,1,36.26,14.56ZM15.19,38.87h6.43A16.36,16.36,0,0,0,36.26,53.55V60A22.8,22.8,0,0,1,15.19,38.87ZM39.48,60V53.55a16.36,16.36,0,0,0,14.7-14.67H60.6A22.8,22.8,0,0,1,39.48,60Z"/><path class="cls-1" d="M37.9,29.77a7.49,7.49,0,1,0,7.49,7.49A7.49,7.49,0,0,0,37.9,29.77Zm0,11.77a4.28,4.28,0,1,1,4.28-4.28A4.28,4.28,0,0,1,37.9,41.54Z"/></svg>