<svg id="Calque_1" data-name="Calque 1" xmlns="http://www.w3.org/2000/svg" viewBox="0 0 72.83 73.53"><defs><style>.cls-1{fill:#fff;}</style></defs><title>Artboard 1</title><rect class="cls-1" x="5.05" y="61.78" width="62.74" height="3.5"/><path class="cls-1" d="M60.79,13.23H12a7,7,0,0,0-7,7V50.6a7,7,0,0,0,7,7H60.79a7,7,0,0,0,7-7V20.23A7,7,0,0,0,60.79,13.23ZM12,54.1a3.5,3.5,0,0,1-3.48-3.5V20.23A3.5,3.5,0,0,1,12,16.73H60.79a3.5,3.5,0,0,1,3.5,3.5V50.6a3.5,3.5,0,0,1-3.5,3.5Z"/><rect class="cls-1" x="18.52" y="24.45" width="4.58" height="3.93"/><rect class="cls-1" x="26.33" y="24.45" width="28.4" height="3.93"/><rect class="cls-1" x="18.52" y="32.89" width="4.58" height="3.93"/><rect class="cls-1" x="26.33" y="32.89" width="28.4" height="3.93"/><rect class="cls-1" x="18.52" y="41.33" width="4.58" height="3.93"/><rect class="cls-1" x="26.33" y="41.33" width="28.4" height="3.93"/></svg>