<svg id="Calque_1" data-name="Calque 1" xmlns="http://www.w3.org/2000/svg" viewBox="0 0 72.83 73.53"><defs><style>.cls-1{fill:#fff;}</style></defs><title>Artboard 1</title><path class="cls-1" d="M42.16,25.42H31.8a7.11,7.11,0,0,0-7.09,7.09V46a7.11,7.11,0,0,0,5.17,6.81V68h3.5V49.62H31.8A3.59,3.59,0,0,1,28.22,46V32.51a3.59,3.59,0,0,1,3.59-3.59H42.16a3.59,3.59,0,0,1,3.59,3.59V46a3.59,3.59,0,0,1-3.59,3.59H40.57V68h3.5V52.85A7.11,7.11,0,0,0,49.25,46V32.51A7.11,7.11,0,0,0,42.16,25.42Z"/><path class="cls-1" d="M37,5.34a8.24,8.24,0,1,0,8.23,8.24A8.24,8.24,0,0,0,37,5.34Zm0,13a4.74,4.74,0,1,1,4.73-4.74A4.74,4.74,0,0,1,37,18.32Z"/><path class="cls-1" d="M21.06,28.1H10.7a7.11,7.11,0,0,0-7.09,7.09V46.85a7.11,7.11,0,0,0,5.17,6.81V68.19h3.5V50.44H10.7a3.59,3.59,0,0,1-3.59-3.59V35.18A3.59,3.59,0,0,1,10.7,31.6H21.06a3.59,3.59,0,0,1,3.59,3.59V46.85a3.59,3.59,0,0,1-3.59,3.59H19.47V68.19H23V53.67a7.11,7.11,0,0,0,5.17-6.81V35.18A7.11,7.11,0,0,0,21.06,28.1Z"/><path class="cls-1" d="M15.88,8a8.24,8.24,0,1,0,8.23,8.24A8.24,8.24,0,0,0,15.88,8Zm0,13a4.74,4.74,0,1,1,4.73-4.74A4.74,4.74,0,0,1,15.88,21Z"/><path class="cls-1" d="M62.13,30.42H52.77a7.11,7.11,0,0,0-7.09,7.09V48a7.11,7.11,0,0,0,5.17,6.81V68h3.5V51.62H52.77A3.59,3.59,0,0,1,49.19,48V37.51a3.59,3.59,0,0,1,3.59-3.59h9.36a3.59,3.59,0,0,1,3.59,3.59V48a3.59,3.59,0,0,1-3.59,3.59H60.54V68H64V54.85A7.11,7.11,0,0,0,69.22,48V37.51A7.11,7.11,0,0,0,62.13,30.42Z"/><path class="cls-1" d="M57,10.34a8.24,8.24,0,1,0,8.23,8.24A8.24,8.24,0,0,0,57,10.34Zm0,13a4.74,4.74,0,1,1,4.73-4.74A4.74,4.74,0,0,1,57,23.32Z"/></svg>