<?xml version="1.0" encoding="utf-8"?>
<!-- Generator: Adobe Illustrator 21.1.0, SVG Export Plug-In . SVG Version: 6.00 Build 0)  -->
<svg version="1.1" id="Layer_1" xmlns="http://www.w3.org/2000/svg" xmlns:xlink="http://www.w3.org/1999/xlink" x="0px" y="0px"
	 viewBox="0 0 41.1 36.6" style="enable-background:new 0 0 41.1 36.6;" xml:space="preserve">
<style type="text/css">
	.st0{fill:#E23B26;}
	.st1{fill:#FFFFFF;}
</style>
<path class="st0" d="M20.5,36.6c-1.5,0-2.8-0.8-3.5-2L0.6,6.1c-0.7-1.3-0.7-2.8,0-4.1s2.1-2,3.5-2H37c1.5,0,2.8,0.8,3.5,2
	c0.7,1.3,0.7,2.8,0,4.1L24.1,34.6C23.3,35.9,22,36.6,20.5,36.6z"/>
<g>
	<path class="st1" d="M18.1,22c0-1.4,1-2.4,2.4-2.4c1.4,0,2.3,1,2.4,2.4c0,1.4-0.9,2.4-2.4,2.4C19.1,24.4,18.1,23.4,18.1,22z
		 M19,18.3L18.4,6.2h4.2l-0.6,12.1H19z"/>
</g>
</svg>
