<svg id="Calque_1" data-name="Calque 1" xmlns="http://www.w3.org/2000/svg" viewBox="0 0 72.83 73.53"><defs><style>.cls-1{fill:#fff;}</style></defs><title>icn-professional-development</title><path class="cls-1" d="M39.11,34.17h0a5.51,5.51,0,1,1,7.79,0A5.48,5.48,0,0,1,39.11,34.17Zm6.12-6.12a3.14,3.14,0,1,0,0,4.44A3.12,3.12,0,0,0,45.22,28.05Z"/><path class="cls-1" d="M45.94,44.33c-.83.62-1.84,1.36-3,2.16-.49,2.54-1.93,6-5.86,9.4a18.56,18.56,0,0,0-.48-5.27c-.82.49-1.66,1-2.52,1.46.77,4.3-.39,6.53-.4,6.54a1.38,1.38,0,0,0,.22,1.67l0,0a1.38,1.38,0,0,0,1.71.14C44.51,54.52,45.93,47.91,45.94,44.33Z"/><path class="cls-1" d="M17.63,47.29a1.18,1.18,0,0,0,0,1.67h0a1.18,1.18,0,0,0,1.67,0l3.07-3.07-1.67-1.67Z"/><path class="cls-1" d="M16.26,55.34A1.18,1.18,0,1,0,17.94,57l7.77-7.77L24,47.57Z"/><path class="cls-1" d="M23.81,54.47a1.18,1.18,0,1,0,1.67,1.67L29,52.58l-1.67-1.67Z"/><path class="cls-1" d="M17.39,36.17c3.43-3.9,6.83-5.36,9.37-5.85.8-1.14,1.54-2.15,2.16-3-3.58,0-10.18,1.46-16.1,10.27a1.38,1.38,0,0,0,.13,1.7l0,0a1.39,1.39,0,0,0,1.65.23s2.25-1.18,6.53-.41c.48-.86,1-1.7,1.46-2.52A18.54,18.54,0,0,0,17.39,36.17Z"/><path class="cls-1" d="M58.31,15.43h0a1.27,1.27,0,0,0-.13-.32l0,0,0,0a1.56,1.56,0,0,0-.34-.13h0c-.74-.26-18.23-5.89-35.63,27.3l-.06.06,8.78,8.77,0,0v0C64.21,33.67,58.57,16.17,58.31,15.43ZM55.9,17.37a16.37,16.37,0,0,1-1,7.5L48.4,18.34A16.38,16.38,0,0,1,55.9,17.37ZM45.66,19.5l8.12,8.12c-2.83,5.64-9.06,12.8-22.35,20.08l-5.84-5.84C32.86,28.56,40,22.33,45.66,19.5Z"/></svg>