<svg id="Calque_1" data-name="Calque 1" xmlns="http://www.w3.org/2000/svg" viewBox="0 0 72.83 73.53"><defs><style>.cls-1{fill:#fff;}</style></defs><title>Artboard 1</title><path class="cls-1" d="M32.46,24.92H21.1A7.11,7.11,0,0,0,14,32V46.66a7.11,7.11,0,0,0,5.55,6.91V69.24h3.5l0-19H21.1a3.59,3.59,0,0,1-3.59-3.59V32a3.59,3.59,0,0,1,3.59-3.59H32.46A3.59,3.59,0,0,1,36,32v2.74A21.64,21.64,0,0,1,39.54,33V32A7.11,7.11,0,0,0,32.46,24.92Z"/><path class="cls-1" d="M47,35.13A18.13,18.13,0,1,0,65.16,53.25,18.12,18.12,0,0,0,47,35.13ZM61.55,51.52H54.84A28.7,28.7,0,0,0,51.41,39.3,14.66,14.66,0,0,1,61.55,51.52Zm-19.14,0a24.24,24.24,0,0,1,4.48-12.88h.06a24.24,24.24,0,0,1,4.48,12.88ZM51.33,55a29.78,29.78,0,0,1-4.42,12.63A29.78,29.78,0,0,1,42.49,55Zm-9-15.6A28.69,28.69,0,0,0,39,51.52H32.53A14.65,14.65,0,0,1,42.34,39.42ZM32.53,55H39a31.63,31.63,0,0,0,3.62,12.19A14.66,14.66,0,0,1,32.53,55Zm18.6,12.27A31.64,31.64,0,0,0,54.79,55h6.75A14.65,14.65,0,0,1,51.13,67.29Z"/><path class="cls-1" d="M26.78,4a8.57,8.57,0,1,0,8.57,8.57A8.57,8.57,0,0,0,26.78,4Zm0,13.65a5.07,5.07,0,1,1,5.07-5.07A5.08,5.08,0,0,1,26.78,17.67Z"/></svg>