<svg id="Calque_1" data-name="Calque 1" xmlns="http://www.w3.org/2000/svg" viewBox="0 0 72.83 73.53"><defs><style>.cls-1{fill:#fff;}</style></defs><title>icn-ce-adjunct</title><polygon class="cls-1" points="56.93 56.73 50.76 51.71 52.7 49.32 56.43 52.35 61.8 45.4 64.24 47.28 56.93 56.73"/><path class="cls-1" d="M57.3,64.7A13.71,13.71,0,1,1,71,51,13.73,13.73,0,0,1,57.3,64.7Zm0-24.34A10.63,10.63,0,1,0,67.93,51,10.64,10.64,0,0,0,57.3,40.36Z"/><path class="cls-1" d="M21.58,40.49h0a19.51,19.51,0,0,0-2.14.22l-5.25.73A11.06,11.06,0,0,0,5,52.43V64.16H8V52.43c0-6.68,6.42-7.91,6.63-7.95l5.23-.73.33,0,2.29,20.45h3.1l-2.5-22.31A1.53,1.53,0,0,0,21.58,40.49Z"/><path class="cls-1" d="M29.39,42.67a1.54,1.54,0,0,0-1.54,1.54v20h3.08v-20A1.54,1.54,0,0,0,29.39,42.67Z"/><path class="cls-1" d="M43.8,41.33l-4.44-.62a18.65,18.65,0,0,0-2.14-.22h0a1.53,1.53,0,0,0-1.52,1.36l-2.5,22.31h3.1l2.3-20.45.33,0,3.26.46A17,17,0,0,1,43.8,41.33Z"/><path class="cls-1" d="M41.39,13.7c-.51-1.52-1.69-2.8-5.77-4.06-4.27-1.32-13.52-.83-13.91-.8l-1,.06-2.09,4.74c-2.91,1.6-3.44,2-3.44,3.08a40.7,40.7,0,0,1,2,9.82c.37,8.36,5.49,14.82,11.94,14.82S40.78,34.76,41,26.54C41,26.54,41.5,14,41.39,13.7ZM22.91,12.1c3.05-.12,9-.14,11.74.71,1.44.44,3.18,1.12,3.56,1.84,0,.37,0,1.25,0,2.4L27,14.31v2.11c0,.28,0,.58,0,.87-1.69-.51-3.91-1.08-5.74-1.53Zm6.16,26.26c-4.95,0-9-5.64-8.86-11.71,0-2.11-1-6.09-1.37-8.07a89.34,89.34,0,0,1,9,2.47l.84.42.79-.48c.66-.41.85-.87.9-2.45l7.74,1.9c-.07,1.87,0,6,0,6C37.87,33,33.92,38.36,29.07,38.36Z"/></svg>