<svg id="Calque_1" data-name="Calque 1" xmlns="http://www.w3.org/2000/svg" viewBox="0 0 72.83 73.53"><defs><style>.cls-1{fill:#fff;}</style></defs><title>Artboard 1</title><circle class="cls-1" cx="2.25" cy="39.89" r="2.25"/><path class="cls-1" d="M43.55,53.86c-1,.4-1.76.51-2.56-.43l-1.3-2.3L36.21,45a1.75,1.75,0,0,0-3,1.73l3.44,6.07.06.1h0l.87,1.48.65,1.1.1.17c.14.17.28.33.42.47a4.91,4.91,0,0,0,3.56,1.54,7.53,7.53,0,0,0,2.94-.7l.26-.1L44.8,55.8Z"/><path class="cls-1" d="M34.95,55.89c-.11.06-1,.48-2-.74l0,0L30,50a1.75,1.75,0,0,0-3,1.74l2.76,4.8.07.12h0l.11.18L30,57a5.35,5.35,0,0,0,4.39,2.48A4.85,4.85,0,0,0,36.63,59L35.18,56.3Z"/><circle class="cls-1" cx="70.58" cy="42.88" r="2.25"/><path class="cls-1" d="M26.46,57a3.2,3.2,0,0,1-2.83-1.74L15.91,42H12.05V20.64H23.28l2.78-3.5h-14V13.05H.11v3.5H8.55v30H0v3.5h12V45.55h1.85L20.61,57a6.63,6.63,0,0,0,5.91,3.46,7.31,7.31,0,0,0,1.86-.24Z"/><path class="cls-1" d="M64.28,19.44h8.47v-3.5h-12v3.5l-11-4.79h0v-.06H36.22c-.39,0-3.88.18-7.26,4.42L19.53,31.33l.47,1c.18.37,1.84,3.61,5.15,4.4a6.15,6.15,0,0,0,1.43.17A8,8,0,0,0,31.45,35l6.43-6.51,4.2.36L53,49.68v0A7.35,7.35,0,0,1,51.3,52a1.23,1.23,0,0,1-.39.21l-.12,0c-.16,0-.53-.14-1-.69l-2.94-4.6-4.12-6.44a1.75,1.75,0,1,0-2.95,1.88l3.79,5.94.26.4h0l1.94,3L47,53.65l0,0,.13.15.05.06a5.92,5.92,0,0,0,1.93,1.46,4,4,0,0,0,1.61.36h.4A4.31,4.31,0,0,0,53.08,55c1.85-1.21,3.08-3.63,3.71-5.15h4V53h12v-3.5H64.28Zm-9.1,26.89L44.31,25.56v-.05c-.95-.06-6.89-.58-6.95-.58l-.82-.07-7.31,7.43a4,4,0,0,1-3.25,1,4.36,4.36,0,0,1-2.27-1.66l8-10.44c2.32-2.92,4.5-3.07,4.53-3.08H49l11.79,5.15v23Z"/></svg>