<svg id="Layer_1" data-name="Layer 1" xmlns="http://www.w3.org/2000/svg" viewBox="0 0 83.83 45.74"><defs><style>.cls-1,.cls-2{fill:#fff;}.cls-2{font-size:36px;font-family:Roboto-Black, Roboto;}</style></defs><title>Artboard 1</title><path class="cls-1" d="M1.36,30.74c-.17.42-.42.42-.72.08-.59-.63-1.05-2.06-.08-4.59C2.12,22.22,8.95,11,13.5,4.77c.38-.55.8-.72,1.35-.25,1.64,1.43,2.11,2.91,1,6.24-1.35,4-2.87,9-4.47,14.88,4.59-7.5,10.75-13.78,15.38-21,.38-.59.72-.63,1.22-.13,1.69,1.73,1.26,4,.13,6.15a161,161,0,0,0-9.27,20.06c-.17.42-.34.42-.67.13-.67-.55-1.18-1.81-.46-4.59.63-2.49,3.33-8.39,6.07-13.66C19,18.43,14.09,24.88,11.05,30.53c-.21.42-.42.55-.76.29-1.39-1-2-2.49-1.6-5.1A107.23,107.23,0,0,1,12.32,11.9C8.57,17.54,3.85,25.09,1.36,30.74Z"/><path class="cls-1" d="M33.1,31.79c-2.36,5.65-5.35,12.43-8.85,13.78a1.81,1.81,0,0,1-2.4-.89A5.3,5.3,0,0,1,21,39.46c1.26-3.79,4.85-6.32,9-8,.42-1,.84-2,1.31-3-1.31,1.35-2.91,2.44-4.59,2.32-3-.25-3.12-3.33-2.15-6.11A45,45,0,0,1,30.31,14a.58.58,0,0,1,1.05,0c1,1.35.76,3.12-.8,5.6a38.47,38.47,0,0,0-3.25,6.15c-.84,2.06-.76,3.54.21,3.62,1.64.13,3.75-2.57,5.9-6.24,1.81-3.12,3.62-6.91,5.1-9.06.38-.55.67-.63,1.05-.29.59.76.93,2.57-.17,4.72C38.15,21,35.58,26,33.81,30.1a29.57,29.57,0,0,0,8.5-7.6c.21-.29.59-.34.67.08s-1,2.21-1.67,3.3C39.67,28.5,36.59,30.36,33.1,31.79ZM22.69,43.25c.55.8,4-3.79,6.62-10C23.82,36.43,21.93,42.2,22.69,43.25Z"/><text class="cls-2" transform="translate(40.06 30.8)">CE</text></svg>