<svg id="Layer_1" data-name="Layer 1" xmlns="http://www.w3.org/2000/svg" viewBox="0 0 267.97 100.82"><defs><style>.cls-1{fill:#0c99d5;stroke:#0c99d5;}.cls-1,.cls-2,.cls-3,.cls-4{stroke-width:1.5px;}.cls-2{fill:#15375f;stroke:#15375f;}.cls-3,.cls-5{fill:#82301a;stroke:#82301a;}.cls-4,.cls-6{fill:#fcb814;stroke:#fcb814;}.cls-5,.cls-6{stroke-width:2px;}.cls-10,.cls-11,.cls-12,.cls-7,.cls-8,.cls-9{fill:#150f11;stroke:#150f11;}.cls-12,.cls-7{stroke-width:0.5px;}.cls-11,.cls-8{stroke-width:0.25px;}.cls-9{stroke-width:0.15px;}.cls-10,.cls-11,.cls-12{stroke-miterlimit:10;}.cls-10{stroke-width:0.6px;}</style></defs><title>Artboard 1</title><path class="cls-1" d="M202.25,7.3c.9-.75-6.07-2.94-9.25-3.54s-6.83-1.55-8,0-.9,6.58,9.71,15.92S217.32,38.17,232.42,45s32.38,9.87,34.48,4.63-6.67-9.3-7.76-9.43-.59.21-.14,1.1,1.31,2.54.71,4-7.7,1.2-14-.66c-12.34-3.6-28-12.26-38-20.17S191,10.25,193.05,8.37,201,8.34,202.25,7.3Z"/><path class="cls-2" d="M199.84,14c-1.16-.83,7.71-9,13.84-11.11s17.94-4.29,29.26,2.46c10.55,6.28,18.23,19.92,12.66,36.05-.71,1.42-7.15,1.34-6.74-.16,2.5-9.17,1.92-22.64-6.46-29.39C232.52,3.87,222,3,212.74,6.51,205.09,9.38,200.79,14.68,199.84,14Z"/><path class="cls-3" d="M229.27,33.64c-1,.82,4.33,5,5.65,3.86,4.28-3.59,11.71-16.23,8.49-20.11s-10.45-4.21-13.51-2c-1.53,1.12-.74,5.7.9,5.1s7.15-2.74,7.49-1C239,23,234.81,29,229.27,33.64Z"/><path class="cls-4" d="M232.37,27.34c-1.4.23-3.81-1.06-6.93-4.75S217,11.21,220,9s8.71-.7,11.79,1-5.65-1.19-6.92,2.24.58,6.2,3,9.6S233.46,27.17,232.37,27.34Z"/><path class="cls-5" d="M219.84,22.4a22.85,22.85,0,0,1-5.65,2.29c-1.24.13-5.1-1.48-3.69-2.59s6.42-3.84,8.07-4S220.93,21.8,219.84,22.4Z"/><path class="cls-4" d="M180.36,22.54c2-3.79,9.79-.92,9.32-.4-.65.74-2.32,1-3.45,1.62-1.89,1-.28,4.22,3.21,7.31A61.44,61.44,0,0,0,211,42.76c1.89.57-2.77,3.82-4.64,3.22-9.26-3-19.9-11.4-22.69-15C181.24,27.9,179.1,25,180.36,22.54Z"/><path class="cls-6" d="M226.07,49.94c5.21,1.33,8.77,2.06,13.23,1.92,1.84-.07,2.12.51-1.91,1.59a26,26,0,0,1-14-.67C221.74,52.14,224.6,49.57,226.07,49.94Z"/><path class="cls-2" d="M248.31,57.33c-6.41,7.67-16.5,11.45-24.23,10.95a26.83,26.83,0,0,1-15.89-7.06c-3.17-2.87.66-.06,5,1.53A26.75,26.75,0,0,0,226,64.25c5-.79,11.61-3.46,15.9-8.58C243.18,54.12,249.5,55.91,248.31,57.33Z"/><path class="cls-3" d="M225.44,45.79c-6.83,6.12-18.78,11.71-27.61,12.27s-13.92-6-13.83-12.55c.05-4.07,1.94-7.45,2.1-6.19s-.35,2.52.37,6.43c.94,5,7.73,7.91,13.7,6.3a50.82,50.82,0,0,0,18.11-9.51C220,41.2,227.25,44.17,225.44,45.79Z"/><path class="cls-7" d="M33.95,30.27a12.88,12.88,0,0,1-6.43-1.53A19,19,0,0,1,26.4,23c.21-.29.82-.37,1-.12C28,25,29.7,29,34.48,29c3.46,0,5.16-2.27,5.16-4.74,0-1.81-.37-3.84-3.38-5.77l-3.92-2.56c-2.06-1.36-4.45-3.71-4.45-7.09,0-3.92,3.05-7.09,8.41-7.09a14.13,14.13,0,0,1,3.84.54,8.1,8.1,0,0,0,1.44.25,18.06,18.06,0,0,1,.74,5c-.17.25-.82.37-1,.12C40.75,5.69,39.64,3,35.68,3s-4.91,2.68-4.91,4.58c0,2.39,2,4.08,3.51,5.07l3.3,2.06c2.6,1.61,5.16,4,5.16,7.92C42.73,27.18,39.31,30.27,33.95,30.27Z"/><path class="cls-8" d="M54.16,21.08c.62-.21.66-.58.7-1.2l0-1.9c0-1.53-.45-3.59-3-3.59-1.15,0-2.56.58-2.64,1.86,0,.66-.08,1.15-.41,1.4a4.45,4.45,0,0,1-2.35.78.52.52,0,0,1-.58-.58c0-2.15,4.66-5.07,7.67-5.07s4.41,1.73,4.29,4.82l-.25,7.18c-.08,1.9.29,3.59,1.9,3.59a2.38,2.38,0,0,0,1-.25c.21-.12.41-.29.54-.29s.29.25.29.54a4.32,4.32,0,0,1-3.46,1.81,3.29,3.29,0,0,1-2.68-1.28c-.16-.25-.41-.58-.66-.58a6.34,6.34,0,0,0-1.61.82,6.1,6.1,0,0,1-3,1,4.27,4.27,0,0,1-2.89-.95,3.86,3.86,0,0,1-1.28-2.89c0-1.61.78-2.56,3.42-3.51ZM51.6,28.34a4.67,4.67,0,0,0,2.52-1,2.43,2.43,0,0,0,.54-1.94l.08-2.43c0-.45-.16-.54-.41-.54a7.78,7.78,0,0,0-1.69.41C50.2,23.63,49,24.25,49,25.86A2.49,2.49,0,0,0,51.6,28.34Z"/><path class="cls-8" d="M67.73,25c0,3,.08,3.38,1.57,3.59l1,.12a.72.72,0,0,1-.08,1c-1.36-.08-2.56-.12-4-.12s-2.72,0-4,.12a.72.72,0,0,1-.08-1l.95-.12c1.53-.21,1.57-.62,1.57-3.59V6.35c0-2.43,0-2.68-1.28-3.42L63,2.68a.63.63,0,0,1,0-.83A29.23,29.23,0,0,0,67.44.13a.45.45,0,0,1,.41.25c0,1.24-.12,3.3-.12,5.11Z"/><path class="cls-8" d="M77.65,15.1c-.7,0-.74.13-.74,1V23.8c0,2.39.29,4.58,3,4.58A3.15,3.15,0,0,0,81,28.17c.37-.12.91-.58,1-.58.33,0,.5.45.41.7a5.71,5.71,0,0,1-4.33,1.9c-3.55,0-4.29-2-4.29-4.45V16.29c0-1.11,0-1.2-.87-1.2H71.83a.68.68,0,0,1-.12-.86A8.18,8.18,0,0,0,74.35,13a10.24,10.24,0,0,0,1.73-2.43c.21-.08.7-.08.87.21v1.86c0,.74,0,.78.74.78h4.58a1.32,1.32,0,0,1,0,1.73Z"/><path class="cls-9" d="M98.48,8.58c0-4.33-.08-5-2.68-5.2l-1-.08c-.25-.16-.16-.91.08-1,2.31.08,3.71.12,5.36.12s3,0,5.07-.12c.25.12.33.87.08,1l-1,.08c-2.43.21-2.52.87-2.52,5.2V22.93c0,2.6.12,3.67.87,4.45.45.45,1.24.95,4.5.95,3.51,0,4.37-.17,5-.54A8.81,8.81,0,0,0,115,23.72c.25-.21,1,0,1,.25a33,33,0,0,1-1.73,5.77c-2.1-.08-6-.12-10.27-.12h-3.79c-1.73,0-3.05,0-5.36.12a.8.8,0,0,1-.08-1L96,28.58c2.39-.25,2.47-.83,2.47-5.16Z"/><path class="cls-8" d="M125.78,21.08c.62-.21.66-.58.7-1.2l0-1.9c0-1.53-.45-3.59-3-3.59-1.15,0-2.56.58-2.64,1.86,0,.66-.08,1.15-.41,1.4a4.45,4.45,0,0,1-2.35.78.52.52,0,0,1-.58-.58c0-2.15,4.66-5.07,7.67-5.07s4.41,1.73,4.29,4.82l-.25,7.18c-.08,1.9.29,3.59,1.9,3.59a2.37,2.37,0,0,0,1-.25c.21-.12.41-.29.54-.29s.29.25.29.54a4.32,4.32,0,0,1-3.47,1.81,3.29,3.29,0,0,1-2.68-1.28c-.16-.25-.41-.58-.66-.58a6.36,6.36,0,0,0-1.61.82,6.1,6.1,0,0,1-3,1,4.27,4.27,0,0,1-2.89-.95,3.86,3.86,0,0,1-1.28-2.89c0-1.61.78-2.56,3.42-3.51Zm-2.56,7.26a4.66,4.66,0,0,0,2.52-1,2.43,2.43,0,0,0,.54-1.94l.08-2.43c0-.45-.17-.54-.41-.54a7.78,7.78,0,0,0-1.69.41c-2.43.82-3.63,1.44-3.63,3.05A2.49,2.49,0,0,0,123.22,28.34Z"/><path class="cls-8" d="M136.3,6.35c0-2.43,0-2.68-1.28-3.42l-.41-.25a.63.63,0,0,1,0-.83A29.26,29.26,0,0,0,139.06.13a.45.45,0,0,1,.41.25c0,1.24-.12,3.3-.12,5.11V19.63c0,.54,0,.62.74.62.91,0,1.69-.45,2.8-1.61l1.69-1.81c1.16-1.24,1.44-1.69,1.44-1.9s-.21-.33-.91-.41l-1-.12a.62.62,0,0,1,0-1h.95a64.68,64.68,0,0,0,6.56-.33c.29.12.33.83.08,1l-1.32.25a6,6,0,0,0-2.6,1.44c-1.61,1.28-3,2.76-3.75,3.46-.5.45-.54.66-.29,1,.7.95,1.36,1.73,2.76,3.3,1.61,1.81,3.05,3.42,3.88,4.21a4.15,4.15,0,0,0,2.14.91l.58.08c.29.21.25.91-.08,1-1.2-.08-2.6-.12-3.92-.12-1.65,0-3.09,0-4.29.12a.69.69,0,0,1-.08-1l.74-.12c.62-.08,1-.17,1-.41s-.17-.54-.7-1.15l-4.41-5.11a1.68,1.68,0,0,0-1.28-.58c-.74,0-.78.12-.78,1.4V25c0,3,.08,3.38,1.57,3.59l1,.12a.72.72,0,0,1-.08,1c-1.36-.08-2.56-.12-4-.12s-2.72,0-4,.12a.69.69,0,0,1,0-1l.91-.12c1.53-.21,1.57-.62,1.57-3.59Z"/><path class="cls-8" d="M157.91,19.05c-1.07,0-1.11.08-1.11,1.11,0,4.17,2.43,7.71,6.85,7.71a4.44,4.44,0,0,0,3.79-2,.55.55,0,0,1,.74.5,7.21,7.21,0,0,1-6.47,3.84,7.39,7.39,0,0,1-6-2.72A8.76,8.76,0,0,1,154,22.11c0-5.07,3.34-9.32,8.29-9.32,3.55,0,5.86,2.43,5.86,4.91a2.55,2.55,0,0,1-.17,1.07c-.12.25-.7.29-2.43.29Zm2.56-1.24c3.05,0,4-.17,4.29-.41.12-.08.25-.25.25-.78,0-1.15-.78-2.6-3.18-2.6s-4.54,2.23-4.58,3.59c0,.08,0,.21.29.21Z"/><path class="cls-10" d="M5,34.39a16.21,16.21,0,0,1,10.15-3.2,29,29,0,0,1,6.65.9,2.88,2.88,0,0,0,1.05.15c0,.86.23,3.23.53,5.53a.79.79,0,0,1-1,.08c-.56-2.56-2.26-5.49-7.71-5.49C8.95,32.36,4.06,36,4.06,43.79S9.06,56,15.23,56a8,8,0,0,0,7.86-5.38.79.79,0,0,1,1,.15A14.15,14.15,0,0,1,22.26,56a7.47,7.47,0,0,0-1.32.38,22.18,22.18,0,0,1-5.94.86,16.47,16.47,0,0,1-9.36-2.52A12.12,12.12,0,0,1,.3,44.35,12.49,12.49,0,0,1,5,34.39Z"/><path class="cls-11" d="M41.77,49a7.68,7.68,0,0,1-7.93,8.08,7.43,7.43,0,0,1-7.71-7.75,7.9,7.9,0,0,1,8-8.12A7.51,7.51,0,0,1,41.77,49Zm-8.08-6.65c-2.48,0-4.32,2.37-4.32,6.5,0,3.42,1.54,7.11,4.85,7.11s4.32-3.46,4.32-6.35C38.54,46.45,37.26,42.39,33.69,42.39Z"/><path class="cls-11" d="M65.69,46.94c0-2.56-1.13-3.87-3.5-3.87a4.05,4.05,0,0,0-3.12,1.31c-.45.57-.56.94-.56,2.26V52.4c0,2.71.08,3.08,1.43,3.27l.79.11a.66.66,0,0,1-.08.94c-1.13-.08-2.22-.11-3.53-.11s-2.37,0-3.42.11a.66.66,0,0,1-.08-.94l.68-.11c1.39-.23,1.43-.56,1.43-3.27V46.94c0-2.52-1.13-3.87-3.46-3.87a4,4,0,0,0-3.16,1.35,2.93,2.93,0,0,0-.56,2.14V52.4c0,2.71.08,3,1.43,3.27l.68.11a.66.66,0,0,1-.08.94c-1-.08-2.11-.11-3.42-.11s-2.48,0-3.65.11a.66.66,0,0,1-.07-.94l.9-.11c1.39-.19,1.43-.56,1.43-3.27V45.82c0-1.47,0-1.65-1-2.33l-.34-.23a.52.52,0,0,1,0-.68,20.43,20.43,0,0,0,3.76-1.84.44.44,0,0,1,.41.26c-.08.87-.08,1.43-.08,1.77a.39.39,0,0,0,.41.41,9,9,0,0,1,5-1.92,4.29,4.29,0,0,1,4,2.22,1.18,1.18,0,0,0,.94-.3A9.42,9.42,0,0,1,64,41.27c3,0,4.47,2.07,4.47,4.66V52.4c0,2.71.08,3.08,1.43,3.27l.9.11a.66.66,0,0,1-.08.94c-1.24-.08-2.33-.11-3.65-.11s-2.37,0-3.42.11a.66.66,0,0,1-.08-.94l.68-.11c1.39-.23,1.43-.56,1.43-3.27Z"/><path class="cls-11" d="M95.28,46.94c0-2.56-1.13-3.87-3.5-3.87a4.05,4.05,0,0,0-3.12,1.31c-.45.57-.56.94-.56,2.26V52.4c0,2.71.07,3.08,1.43,3.27l.79.11a.66.66,0,0,1-.08.94c-1.13-.08-2.22-.11-3.53-.11s-2.37,0-3.42.11a.66.66,0,0,1-.08-.94l.68-.11c1.39-.23,1.43-.56,1.43-3.27V46.94c0-2.52-1.13-3.87-3.46-3.87a4,4,0,0,0-3.16,1.35,2.92,2.92,0,0,0-.56,2.14V52.4c0,2.71.07,3,1.43,3.27l.68.11a.66.66,0,0,1-.08.94c-1-.08-2.11-.11-3.42-.11s-2.48,0-3.65.11a.66.66,0,0,1-.08-.94l.9-.11c1.39-.19,1.43-.56,1.43-3.27V45.82c0-1.47,0-1.65-1-2.33L74,43.26a.52.52,0,0,1,0-.68,20.43,20.43,0,0,0,3.76-1.84.44.44,0,0,1,.41.26c-.07.87-.07,1.43-.07,1.77a.39.39,0,0,0,.41.41,9,9,0,0,1,5-1.92,4.29,4.29,0,0,1,4,2.22,1.18,1.18,0,0,0,.94-.3,9.42,9.42,0,0,1,5.11-1.92c3,0,4.47,2.07,4.47,4.66V52.4c0,2.71.08,3.08,1.43,3.27l.9.11a.66.66,0,0,1-.07.94c-1.24-.08-2.33-.11-3.65-.11s-2.37,0-3.42.11a.66.66,0,0,1-.07-.94l.68-.11c1.39-.23,1.43-.56,1.43-3.27Z"/><path class="cls-11" d="M106.23,51.08c0,2.59.64,4.32,3.5,4.32a4.91,4.91,0,0,0,3-1.13,2.62,2.62,0,0,0,.75-2.18V45.93c0-2.45-.26-2.52-1.39-3l-.49-.19a.51.51,0,0,1,0-.83,15.06,15.06,0,0,0,4.4-.68c.19,0,.3.11.34.26-.07.72-.11,1.88-.11,3.27v6.32c0,3,.11,4.1,1.17,4.1a7.11,7.11,0,0,0,1.47-.19c.23.19.26.94,0,1.09A19.55,19.55,0,0,0,114,57.51a.52.52,0,0,1-.45-.26V55.7c0-.34-.11-.53-.34-.53a9.82,9.82,0,0,1-5.19,2c-3.31,0-4.55-1.65-4.55-4.7V46.15c0-2.37,0-2.71-1.13-3.2l-.45-.19a.56.56,0,0,1,.08-.83,13.33,13.33,0,0,0,4-.68c.23,0,.34.11.38.26a28.24,28.24,0,0,0-.11,3.27Z"/><path class="cls-11" d="M123.19,45.82c0-1.47,0-1.65-1-2.33l-.34-.23a.52.52,0,0,1,0-.68,20.44,20.44,0,0,0,3.76-1.84A.44.44,0,0,1,126,41c-.08.87-.08,1.43-.08,1.77a.39.39,0,0,0,.41.41,10.31,10.31,0,0,1,5.26-1.92c3.12,0,4.4,2.14,4.4,4.66V52.4c0,2.71.07,3.08,1.43,3.27l.83.11a.66.66,0,0,1-.08.94c-1.13-.08-2.22-.11-3.53-.11s-2.48,0-3.5.11a.66.66,0,0,1-.08-.94l.71-.11c1.39-.23,1.43-.56,1.43-3.27v-5.6c0-2.14-1-3.72-3.53-3.72a4.1,4.1,0,0,0-3.2,1.31,3.17,3.17,0,0,0-.56,2.26V52.4c0,2.71.08,3,1.43,3.27l.68.11a.66.66,0,0,1-.08.94c-1-.08-2.11-.11-3.42-.11s-2.48,0-3.53.11a.66.66,0,0,1-.08-.94l.79-.11c1.39-.19,1.43-.56,1.43-3.27Z"/><path class="cls-11" d="M142.93,45.82c0-1.47,0-1.65-1-2.33l-.34-.23a.52.52,0,0,1,0-.68,25.66,25.66,0,0,0,3.87-1.84c.19,0,.34.08.38.23-.08,1.32-.15,3.12-.15,4.66V52.4c0,2.71.08,3.08,1.43,3.27l.79.11a.66.66,0,0,1-.07.94c-1.13-.08-2.22-.11-3.53-.11s-2.48,0-3.53.11a.66.66,0,0,1-.08-.94l.79-.11c1.39-.19,1.43-.56,1.43-3.27ZM146,36.67a1.94,1.94,0,0,1-3.87.07,1.94,1.94,0,0,1,2-2A1.82,1.82,0,0,1,146,36.67Z"/><path class="cls-11" d="M155.17,43.37c-.64,0-.68.11-.68.9v7c0,2.18.26,4.17,2.75,4.17a2.9,2.9,0,0,0,1-.19c.34-.11.83-.53.94-.53.3,0,.45.41.38.64a5.2,5.2,0,0,1-3.95,1.73c-3.23,0-3.91-1.8-3.91-4.06V44.46c0-1,0-1.09-.79-1.09h-1.05a.63.63,0,0,1-.11-.79,7.43,7.43,0,0,0,2.41-1.17,9.28,9.28,0,0,0,1.58-2.22c.19-.07.64-.07.79.19v1.69c0,.68,0,.71.68.71h3.67a1.2,1.2,0,0,1,0,1.58Z"/><path class="cls-11" d="M160.85,64.35a1.4,1.4,0,0,1,1.5-1.5h.71a1.36,1.36,0,0,0,1.24-.68A23.82,23.82,0,0,0,166.48,58a5.68,5.68,0,0,0,.38-1.62,7.16,7.16,0,0,0-.64-2.59l-2.93-8c-.64-1.77-.9-2.67-2.22-2.93l-.94-.19c-.23-.19-.19-.83.11-.94,1.2.08,2.33.11,3.57.11,1,0,2.07,0,3.27-.11.3.11.34.75.08.94l-.94.19c-.53.11-.83.23-.83.49a28.46,28.46,0,0,0,1.09,3.53l1.2,3.46A21,21,0,0,0,168.78,53a18.43,18.43,0,0,0,1.39-2.78l1.28-3a17.51,17.51,0,0,0,1.32-3.76c0-.26-.23-.53-.9-.64l-1.17-.19c-.26-.19-.23-.83.08-.94,1.2.08,2.33.11,3.31.11s1.8,0,2.86-.11a.63.63,0,0,1,.08.94l-.64.11c-1.24.23-1.92,1.32-3.2,4L171.07,51c-1.24,2.52-4.32,9.06-6.17,13.16A2.5,2.5,0,0,1,162.5,66,1.51,1.51,0,0,1,160.85,64.35Z"/><path class="cls-12" d="M93.82,65.23A17.77,17.77,0,0,1,105,61.72a31.79,31.79,0,0,1,7.3,1,3.13,3.13,0,0,0,1.15.16c0,.95.25,3.55.58,6.06a.87.87,0,0,1-1.11.08c-.62-2.8-2.47-6-8.46-6-6.31,0-11.67,4-11.67,12.54S98.23,89,105,89a8.79,8.79,0,0,0,8.62-5.9.87.87,0,0,1,1.07.17,15.51,15.51,0,0,1-2,5.65,8.34,8.34,0,0,0-1.44.41,24.27,24.27,0,0,1-6.52.95A18.06,18.06,0,0,1,94.48,87.5a13.29,13.29,0,0,1-5.86-11.34A13.7,13.7,0,0,1,93.82,65.23Z"/><path class="cls-11" d="M134.11,81.31c0,5.16-3.55,8.87-8.7,8.87a8.15,8.15,0,0,1-8.45-8.5,8.67,8.67,0,0,1,8.78-8.91A8.24,8.24,0,0,1,134.11,81.31ZM125.24,74c-2.72,0-4.74,2.6-4.74,7.14,0,3.75,1.69,7.8,5.32,7.8s4.74-3.79,4.74-7C130.56,78.47,129.16,74,125.24,74Z"/><path class="cls-11" d="M142.23,85c0,3,.08,3.38,1.57,3.59l1,.12a.72.72,0,0,1-.08,1c-1.36-.08-2.56-.12-4-.12s-2.72,0-4,.12a.72.72,0,0,1-.08-1l.95-.12c1.53-.21,1.57-.62,1.57-3.59V66.34c0-2.43,0-2.68-1.28-3.42l-.41-.25a.62.62,0,0,1,0-.82,29.06,29.06,0,0,0,4.45-1.73.45.45,0,0,1,.41.25c0,1.24-.12,3.3-.12,5.11Z"/><path class="cls-11" d="M151.92,85c0,3,.08,3.38,1.57,3.59l1,.12a.72.72,0,0,1-.08,1c-1.36-.08-2.56-.12-4-.12s-2.72,0-4,.12a.72.72,0,0,1-.08-1l.95-.12c1.53-.21,1.57-.62,1.57-3.59V66.34c0-2.43,0-2.68-1.28-3.42l-.41-.25a.63.63,0,0,1,0-.82,29.06,29.06,0,0,0,4.46-1.73.45.45,0,0,1,.41.25c0,1.24-.12,3.3-.12,5.11Z"/><path class="cls-11" d="M160.79,79c-1.07,0-1.11.08-1.11,1.11,0,4.17,2.43,7.71,6.85,7.71a4.44,4.44,0,0,0,3.79-2,.54.54,0,0,1,.74.49,7.21,7.21,0,0,1-6.47,3.84,7.4,7.4,0,0,1-6-2.72,8.77,8.77,0,0,1-1.73-5.36c0-5.07,3.34-9.32,8.29-9.32,3.55,0,5.86,2.43,5.86,4.91a2.54,2.54,0,0,1-.17,1.07c-.12.25-.7.29-2.43.29Zm2.56-1.24c3.05,0,4-.17,4.29-.41.12-.08.25-.25.25-.78,0-1.15-.78-2.6-3.18-2.6s-4.54,2.23-4.58,3.59c0,.08,0,.21.29.21Z"/><path class="cls-11" d="M190.15,74.26c.45.21.37,1.61-.25,1.69h-3a18,18,0,0,1,.08,2.1c0,2.84-1.69,6.56-6.93,6.56-.74,0-1.32-.08-1.82-.12-.5.29-1.81,1.07-1.81,2.27,0,.95.95,1.73,2.89,1.73,1.4,0,3.09-.12,4.91-.12,2.31,0,5.77.41,5.77,4.54,0,4.49-4.91,7.79-10.27,7.79-5.07,0-6.85-2.72-6.85-4.78a2.32,2.32,0,0,1,.45-1.53c.7-.74,1.86-1.82,2.8-2.76.37-.37.7-.74.33-1-1.61-.41-3-1.81-3-3.26,0-.21.16-.37.62-.7a12.77,12.77,0,0,0,2.19-1.9,1.62,1.62,0,0,0,.41-.78,5.6,5.6,0,0,1-3.1-5,6.45,6.45,0,0,1,6.72-6.23,10.31,10.31,0,0,1,4,.82,4.93,4.93,0,0,0,2.52.66Zm-8.62,16.66a9.11,9.11,0,0,0-3.55.45,4.22,4.22,0,0,0-2,3.46c0,2.23,1.77,4.08,5.53,4.08s6.1-2.06,6.1-4.41c0-2.52-1.73-3.59-4.7-3.59Zm2.56-11.8c0-2.8-1.15-5.16-3.67-5.16-2,0-3.47,1.81-3.47,4.62s1.77,4.83,3.75,4.83C182.93,83.42,184.09,81.64,184.09,79.13Z"/><path class="cls-11" d="M195.51,79c-1.07,0-1.11.08-1.11,1.11,0,4.17,2.43,7.71,6.85,7.71a4.44,4.44,0,0,0,3.79-2,.54.54,0,0,1,.74.49,7.21,7.21,0,0,1-6.47,3.84,7.4,7.4,0,0,1-6-2.72,8.77,8.77,0,0,1-1.73-5.36c0-5.07,3.34-9.32,8.29-9.32,3.55,0,5.86,2.43,5.86,4.91a2.55,2.55,0,0,1-.17,1.07c-.12.25-.7.29-2.43.29Zm2.56-1.24c3.05,0,4-.17,4.29-.41.12-.08.25-.25.25-.78,0-1.15-.78-2.6-3.18-2.6s-4.54,2.23-4.58,3.59c0,.08,0,.21.29.21Z"/></svg>